{"glyphs":{"0":{"ha":833,"x_min":-42,"x_max":888,"o":"m 146 -99 q 4 14 50 -64 q -42 201 -42 92 q 6 460 -42 319 q 138 738 54 600 q 335 961 232 896 q 549 1026 438 1026 q 669 1011 608 1026 q 826 928 764 989 q 888 736 888 867 q 825 444 888 614 q 587 22 724 169 q 286 -125 450 -125 q 146 -99 217 -125 m 417 101 q 576 321 508 192 q 678 581 643 450 q 714 808 714 711 q 701 902 714 865 q 664 949 689 939 q 625 956 649 956 q 471 872 553 956 q 314 656 389 789 q 189 375 239 522 q 140 128 140 233 q 162 22 140 60 q 225 -17 183 -17 q 417 101 299 -17 z "},"1":{"ha":514,"x_min":-83,"x_max":674,"o":"m 57 -169 q -36 -111 11 -151 q -83 -3 -83 -71 q 8 218 -83 49 q 223 584 100 388 q 426 892 346 781 q 131 736 178 800 q 124 733 128 732 q 118 739 119 733 q 107 826 107 790 q 164 960 107 921 q 376 1017 217 996 q 661 1043 535 1038 q 670 1038 667 1043 q 671 1026 674 1032 q 313 376 503 732 q 67 -165 124 19 q 57 -169 64 -172 z "},"2":{"ha":694,"x_min":-199,"x_max":726,"o":"m -121 -154 q -139 -146 -132 -154 q -193 -14 -199 -62 q -1 205 -189 28 q 386 544 188 382 q 538 702 492 632 q 585 822 585 772 q 557 886 585 865 q 543 890 553 890 q 437 838 510 890 q 297 710 364 785 q 208 572 231 635 q 203 568 207 569 q 197 569 200 567 q 162 608 181 583 q 131 665 143 633 q 124 704 124 686 q 182 839 124 767 q 325 964 240 911 q 483 1025 410 1017 l 500 1026 q 608 990 556 1026 q 693 894 660 954 q 726 768 726 835 q 654 588 726 669 q 296 253 558 479 q 153 127 224 190 q 42 22 83 64 q 317 58 194 58 q 369 57 351 58 q 461 9 436 51 q 486 -86 486 -33 q 485 -119 486 -112 q 475 -126 482 -129 q 278 -106 392 -106 q -117 -154 101 -106 l -121 -154 z "},"3":{"ha":722,"x_min":-239,"x_max":714,"o":"m -83 -186 q -188 -126 -153 -172 q -237 -35 -224 -79 q -237 -30 -239 -32 q -232 -29 -235 -28 q -150 -37 -207 -37 q 53 -17 -60 -37 q 253 45 167 4 q 354 142 340 86 q 360 179 360 160 q 310 263 360 242 q 203 285 260 283 q 183 297 190 285 q 165 343 172 317 q 163 363 163 350 q 192 413 163 394 q 383 544 296 474 q 535 702 489 632 q 582 822 582 772 q 554 886 582 864 q 540 890 550 890 q 433 837 506 890 q 293 708 360 783 q 204 571 226 632 q 200 567 203 568 q 194 568 197 565 q 126 665 147 610 q 119 704 119 686 q 178 839 119 767 q 321 964 236 911 q 479 1025 406 1017 l 497 1026 q 603 992 553 1026 q 683 899 653 957 q 714 772 714 840 q 650 588 714 675 q 394 357 557 458 q 515 294 467 343 q 557 153 563 246 q 458 -18 551 61 q 231 -144 364 -97 q -15 -192 97 -192 q -83 -186 -56 -192 z "},"4":{"ha":778,"x_min":-51,"x_max":781,"o":"m 265 -189 q 156 -112 192 -162 q 119 4 119 -62 q 164 161 119 79 l 232 285 q 248 313 240 300 q 261 338 256 326 q 8 310 107 324 l 6 310 q -6 315 0 310 q -41 365 -31 347 q -51 399 -51 383 q -28 446 -51 422 q 67 525 -4 469 q 185 618 118 564 q 674 1018 469 849 q 700 1025 688 1025 q 775 992 732 1025 q 776 982 781 986 q 529 511 636 742 q 640 519 592 519 q 688 515 669 519 q 771 392 771 497 q 765 336 771 361 q 760 332 764 333 q 754 332 757 331 q 582 357 719 357 q 458 353 522 357 q 272 -185 340 76 q 270 -189 272 -187 q 265 -189 268 -190 m 188 444 q 340 478 336 476 l 504 768 q 139 433 261 563 l 188 444 z "},"5":{"ha":750,"x_min":-224,"x_max":742,"o":"m -137 -210 q -206 -133 -187 -179 q -224 -42 -224 -86 l -224 -40 q -219 -35 -224 -36 q -212 -39 -215 -35 q -165 -76 -196 -61 q -92 -90 -135 -90 q 179 17 22 -90 q 333 161 269 79 q 426 324 396 243 q 457 465 457 404 q 428 547 457 529 q 386 558 411 558 q 299 533 346 558 q 219 482 253 508 q 197 479 210 472 q 141 515 168 493 q 114 563 114 538 q 117 575 114 567 q 283 969 131 618 q 303 989 288 981 q 619 1063 397 1024 q 642 1064 628 1064 q 723 1022 704 1064 q 742 935 742 981 q 739 930 742 932 q 735 929 736 928 q 689 933 717 933 q 551 917 631 933 q 415 886 471 901 q 397 872 407 885 q 343 751 379 838 q 286 610 307 665 q 410 639 353 639 q 527 603 476 639 q 605 508 578 568 q 632 372 632 447 q 608 238 632 307 q 539 104 585 168 q 356 -79 463 -3 q 143 -193 250 -156 q -46 -231 36 -231 q -137 -210 -107 -231 z "},"6":{"ha":833,"x_min":-15,"x_max":819,"o":"m 597 0 q 422 -142 531 -86 q 211 -197 314 -197 q 47 -136 110 -197 q -15 53 -15 -75 q -7 147 -15 96 q 150 557 24 340 q 433 921 276 774 q 704 1068 590 1068 q 818 1003 779 1068 q 819 997 819 1000 q 815 994 818 994 q 667 914 756 982 q 481 731 578 846 q 299 472 383 617 q 488 538 399 538 q 550 529 519 538 q 666 445 624 508 q 708 293 708 382 q 681 150 708 225 q 597 0 654 75 m 138 -21 q 169 -74 147 -56 q 222 -92 192 -92 q 349 -35 278 -92 q 488 128 419 22 q 558 321 558 236 q 532 399 558 371 q 461 428 506 428 q 344 386 408 428 q 217 263 279 344 q 135 68 151 174 q 132 28 132 40 q 138 -21 132 0 z "},"7":{"ha":639,"x_min":-86,"x_max":760,"o":"m 44 -247 q -86 -126 -86 -225 q 35 156 -86 -33 q 554 901 163 358 q 325 851 397 851 q 297 854 314 851 q 219 903 250 867 q 179 974 189 939 q 179 978 178 975 q 183 981 181 981 q 263 978 210 978 q 476 997 365 978 q 676 1042 586 1015 q 721 1017 699 1043 q 758 967 743 992 q 756 958 760 963 q 679 869 736 944 q 511 607 622 794 q 303 240 403 426 q 76 -196 204 53 l 51 -244 q 49 -247 51 -246 q 44 -247 47 -249 z "},"8":{"ha":694,"x_min":-164,"x_max":667,"o":"m 1 -185 q -117 -81 -69 -149 q -164 71 -164 -14 q -21 365 -164 214 q 236 586 75 465 q 214 711 214 650 q 228 806 214 756 q 339 989 263 925 q 497 1053 415 1053 q 615 1006 572 1053 q 667 893 667 953 q 606 755 667 826 q 425 579 546 683 q 478 392 458 481 q 497 214 497 304 q 478 53 497 129 q 401 -87 458 -28 q 269 -179 344 -147 q 119 -211 194 -211 q 1 -185 53 -211 m 396 706 q 535 824 489 778 q 581 901 581 869 q 564 933 581 919 q 535 943 553 943 q 472 908 504 943 q 417 817 439 872 q 396 706 396 761 m 303 96 q 325 253 325 181 q 285 458 325 350 q 143 319 203 385 q 44 186 83 254 q -14 4 -14 85 q 17 -90 -14 -56 q 96 -124 49 -124 q 216 -67 157 -124 q 303 96 275 -11 z "},"9":{"ha":694,"x_min":-69,"x_max":753,"o":"m -67 -171 q -69 -166 -69 -169 q -67 -161 -69 -162 q 145 -7 14 -124 q 418 347 276 110 q 240 279 328 279 q 113 334 163 279 q 63 481 63 389 q 92 628 63 551 q 205 838 136 749 q 353 975 274 928 q 513 1022 433 1022 q 653 979 589 1022 q 753 776 753 961 q 740 631 753 713 q 644 364 724 518 q 452 66 565 210 q 228 -162 339 -78 q 83 -211 165 -211 q -1 -198 38 -211 q -67 -171 -40 -185 m 322 393 q 452 477 389 415 q 558 653 515 539 q 597 879 592 742 q 554 915 592 915 q 475 887 521 915 q 383 804 429 858 q 306 678 338 750 q 242 461 242 536 q 256 407 242 425 q 296 389 271 389 q 322 393 307 389 z "}," ":{"ha":444,"x_min":0,"x_max":0,"o":""},"A":{"ha":819,"x_min":-74,"x_max":1129,"o":"m 611 -262 q 518 -205 549 -243 q 488 -97 488 -167 q 515 67 488 -33 q 601 314 543 167 q 503 297 554 297 q 421 307 461 297 l 376 318 q 219 60 293 197 q 115 -143 144 -78 q 109 -151 114 -149 q 100 -150 104 -153 q -17 8 -17 -96 q 154 353 -17 138 q 108 354 138 354 q 18 344 54 354 q -58 311 -18 333 q -64 310 -60 310 q -71 313 -68 310 q -72 322 -74 317 q 156 500 -24 500 q 271 486 201 500 q 558 749 403 625 q 837 957 713 874 q 1007 1063 961 1040 q 1042 1065 1019 1065 q 1094 1058 1069 1065 q 1125 1043 1118 1050 q 1125 1032 1129 1036 q 888 550 994 821 q 717 69 781 279 q 626 -254 654 -140 q 621 -261 625 -258 q 611 -262 617 -264 m 647 419 q 778 665 704 539 q 922 892 853 790 q 457 431 667 704 q 574 408 518 408 q 647 419 617 408 z "},"B":{"ha":972,"x_min":-69,"x_max":1111,"o":"m 329 -196 q 123 -167 214 -196 q -19 -90 32 -137 q -69 11 -69 -42 q -31 99 -69 57 q 85 172 7 140 q 349 250 183 215 q 319 314 319 275 q 360 424 319 363 q 483 590 400 486 q 574 706 547 669 q 385 572 469 621 q 235 522 300 522 q 147 558 183 522 q 113 613 125 581 q 100 682 100 644 q 138 815 100 747 q 255 942 175 883 q 456 1035 335 1000 q 678 1068 572 1068 q 899 1028 800 1068 q 1055 917 999 988 q 1111 758 1111 846 q 1011 551 1111 640 q 767 413 911 461 q 858 322 828 369 q 944 331 907 329 l 946 331 q 954 319 954 331 q 946 308 954 311 q 876 294 918 301 q 893 217 893 257 q 808 23 893 119 q 590 -135 722 -74 q 329 -196 458 -196 m 597 492 q 756 534 674 500 q 892 640 839 568 q 938 726 921 679 q 954 818 954 772 q 910 934 954 889 q 774 979 865 979 q 625 956 707 979 q 426 865 510 924 q 301 744 343 807 q 258 638 258 682 q 269 603 258 615 q 303 590 281 590 q 350 601 326 590 q 556 743 453 644 q 728 922 660 842 q 739 924 732 926 q 790 887 774 907 q 807 842 807 867 q 778 758 807 808 q 689 628 750 707 q 628 538 667 599 q 597 492 617 522 m 474 274 q 536 283 515 279 q 699 306 647 300 q 583 378 665 360 q 572 379 579 379 q 536 369 553 379 q 510 340 519 358 q 474 274 478 283 m 239 -58 q 476 -8 364 -58 q 656 117 589 43 q 717 256 722 192 q 386 154 525 206 q 176 59 247 103 q 104 -15 104 15 q 138 -47 104 -36 q 239 -58 172 -58 z "},"C":{"ha":833,"x_min":-75,"x_max":1025,"o":"m 404 -42 q 725 193 578 49 q 967 483 872 338 q 1015 539 1007 539 q 994 475 1025 539 q 560 -46 767 121 q 194 -212 353 -212 q 50 -169 111 -212 q -43 -48 -11 -125 q -75 128 -75 29 q -3 442 -75 281 q 214 792 92 656 q 460 990 336 929 q 694 1050 583 1050 q 804 1033 757 1050 q 899 956 868 1011 q 929 828 929 901 q 905 682 929 758 q 840 543 881 606 q 753 450 800 481 q 638 411 696 411 q 503 475 563 411 q 501 481 500 478 q 506 483 503 483 q 624 547 557 486 q 744 697 692 607 q 811 874 797 788 q 813 896 813 882 q 797 944 813 928 q 751 960 781 960 q 624 915 701 960 q 460 783 547 869 q 294 579 374 696 q 169 332 214 460 q 125 103 125 204 q 159 -34 125 17 q 261 -85 193 -85 q 404 -42 319 -85 z "},"D":{"ha":1111,"x_min":-21,"x_max":1201,"o":"m 158 -89 q 27 12 75 -46 q -21 126 -21 69 q 32 226 -21 183 q 190 288 85 269 q 364 307 283 303 q 374 319 371 314 q 507 501 400 358 q 589 612 522 522 q 694 761 656 701 q 397 549 511 582 q 304 535 350 535 q 173 579 222 535 q 124 693 124 624 q 146 783 124 738 q 253 916 178 851 q 440 1022 328 981 q 686 1063 553 1063 q 835 1049 761 1063 q 1104 917 1007 1018 q 1201 664 1201 815 q 1053 254 1201 475 q 851 34 965 122 q 614 -97 736 -54 q 378 -139 492 -139 q 158 -89 251 -139 m 93 43 q 154 -1 113 14 q 253 -15 196 -15 q 528 52 376 -15 q 810 250 679 119 q 972 474 913 353 q 1031 703 1031 596 q 951 896 1031 824 q 710 965 871 968 q 486 913 579 963 q 346 795 393 863 q 299 672 299 728 q 312 628 299 644 q 350 611 325 611 q 417 632 381 611 q 620 773 538 701 q 742 889 703 844 q 756 892 746 894 q 857 754 857 838 q 817 630 857 700 q 699 468 778 560 q 578 310 628 385 l 668 306 q 675 299 675 306 q 667 290 675 293 q 556 278 613 286 q 435 69 478 158 q 428 63 433 64 q 418 65 422 63 q 360 132 386 89 q 338 229 333 175 q 153 153 222 194 q 83 71 83 111 q 93 43 83 54 z "},"E":{"ha":861,"x_min":-132,"x_max":1096,"o":"m 224 -171 q 31 -135 111 -171 q -90 -37 -49 -99 q -132 97 -132 24 q -67 278 -132 189 q 119 431 -3 368 q 481 540 342 543 q 428 603 450 565 q 407 693 407 642 q 467 868 407 775 q 629 1013 526 964 q 842 1061 732 1061 q 1002 1028 933 1061 q 1089 936 1071 994 q 1096 888 1096 911 q 1062 768 1096 828 q 974 669 1028 708 q 861 631 919 631 q 744 681 799 631 q 742 690 740 685 q 749 696 743 694 q 847 738 788 700 q 951 826 907 775 q 996 921 996 878 q 990 949 996 938 q 931 979 976 979 q 805 941 879 979 q 668 842 731 903 q 583 721 606 782 q 572 656 572 689 q 597 567 572 607 q 656 500 621 528 q 663 485 663 493 q 657 472 663 478 q 643 464 651 465 q 375 403 510 450 q 146 247 240 356 q 68 75 68 160 q 118 -31 68 10 q 254 -71 168 -71 q 494 -7 361 -71 q 644 97 594 40 q 694 200 694 154 q 678 242 694 226 q 632 258 661 258 q 535 224 590 258 q 421 117 481 189 q 412 113 417 113 q 404 119 407 114 q 389 210 389 174 q 457 339 389 300 q 582 369 510 369 q 735 322 669 369 q 800 186 800 274 q 738 19 800 101 q 544 -117 675 -62 q 224 -171 414 -171 z "},"F":{"ha":694,"x_min":-1,"x_max":1153,"o":"m 149 -110 q 39 -53 79 -92 q -1 42 -1 -15 q 146 308 -1 151 q 254 436 201 368 q 63 406 139 425 q 57 407 60 404 q 54 413 54 410 q 97 495 61 460 q 225 538 132 531 q 331 542 263 542 q 442 736 399 643 q 497 889 486 829 q 451 892 464 892 q 306 845 354 892 q 242 751 257 799 q 237 745 240 747 q 229 744 233 743 q 175 791 196 757 q 154 867 154 825 q 199 969 154 926 q 431 1036 271 1036 q 739 990 563 1036 q 911 967 828 967 q 1048 985 990 967 q 1124 1031 1106 1004 q 1130 1034 1125 1035 q 1136 1029 1135 1033 q 1153 943 1153 979 q 1096 838 1153 871 q 940 804 1039 804 q 611 861 806 804 q 615 818 615 843 q 590 691 615 764 q 517 535 565 618 q 692 509 619 528 q 782 460 764 490 q 783 453 785 457 q 776 450 781 450 q 644 451 756 451 q 463 449 529 451 q 400 363 428 399 q 205 59 254 172 q 156 -104 156 -54 q 149 -110 156 -110 z "},"G":{"ha":903,"x_min":-94,"x_max":1076,"o":"m 721 -178 q 686 -179 713 -179 q 576 -158 624 -179 q 528 -76 528 -136 q 603 89 528 -4 q 360 -26 474 11 q 158 -62 247 -62 q -28 0 38 -62 q -94 169 -94 63 q -58 338 -94 246 q 51 525 -21 429 q 335 824 189 707 q 614 993 482 940 q 854 1046 746 1046 q 1007 1006 949 1046 q 1076 854 1076 956 q 1019 647 1076 757 q 881 472 961 538 q 710 394 783 394 q 624 425 657 394 q 576 489 592 456 q 577 496 575 493 q 583 499 579 499 q 690 526 629 496 q 814 623 750 556 q 932 794 878 690 q 957 881 957 840 q 935 933 957 915 q 874 951 914 951 q 731 911 815 951 q 541 785 646 871 q 326 571 436 700 q 165 343 219 447 q 111 168 111 239 q 142 85 111 114 q 233 57 174 57 q 404 97 303 57 q 632 219 506 138 q 460 203 515 203 q 418 206 443 203 q 386 232 386 211 q 421 294 386 261 q 458 331 456 328 q 468 332 464 333 q 551 313 488 322 q 681 304 614 304 q 799 314 749 304 q 811 315 803 315 q 863 290 844 315 q 888 249 882 268 q 885 239 889 243 q 774 77 833 175 q 715 -104 715 -21 q 728 -162 715 -136 l 729 -168 q 726 -175 729 -172 q 721 -178 724 -178 z "},"H":{"ha":917,"x_min":54,"x_max":1226,"o":"m 642 -187 q 552 -135 582 -168 q 522 -50 522 -103 q 558 94 522 7 q 671 307 594 181 q 585 376 642 346 q 454 417 529 406 q 303 151 351 267 q 239 -31 254 35 q 234 -37 238 -35 q 225 -39 231 -40 q 94 76 94 -24 q 138 221 94 136 q 260 415 182 306 q 136 383 185 406 q 67 333 88 360 q 60 331 64 331 q 56 336 56 332 q 96 458 54 394 q 260 543 138 521 q 361 550 314 551 l 394 593 q 567 826 511 743 q 624 946 624 908 q 588 975 624 975 q 549 969 569 975 q 388 886 469 951 q 251 743 306 821 q 197 615 197 665 q 200 599 197 610 q 199 593 201 596 q 193 590 196 590 q 115 618 150 592 q 79 690 79 644 q 139 821 79 747 q 343 983 218 921 q 578 1046 468 1046 q 663 1033 625 1046 q 744 928 744 1004 q 691 765 744 865 q 528 519 638 665 q 641 459 593 496 q 714 375 689 422 q 838 563 783 483 q 1067 903 1008 811 q 1129 1019 1126 996 q 1140 1029 1132 1029 q 1226 953 1226 1015 q 1183 823 1226 904 q 1036 581 1139 742 l 921 394 q 736 45 797 193 q 656 -181 675 -103 q 650 -187 654 -185 q 642 -187 646 -189 z "},"I":{"ha":431,"x_min":-210,"x_max":889,"o":"m -199 -167 q -207 -158 -204 -167 q -190 -109 -210 -139 q -137 -53 -171 -79 q -65 -19 -103 -28 q 82 -10 -17 -10 q 74 54 74 22 q 76 93 74 65 q 176 363 93 211 q 355 645 258 514 q 524 858 451 776 q 565 903 538 875 q 340 831 440 879 q 199 710 240 783 q 190 706 197 706 q 182 713 185 706 q 174 789 174 749 q 194 891 174 844 q 264 963 214 938 q 558 1004 349 1004 q 676 1000 619 1004 q 785 1046 742 1046 q 815 1035 804 1046 l 782 990 q 856 976 835 985 q 889 936 889 964 q 883 915 889 926 q 877 911 881 913 q 871 911 874 910 q 732 922 844 926 q 410 388 519 622 q 263 -11 300 153 q 432 -26 403 -15 q 494 -81 468 -40 q 496 -86 496 -82 q 493 -92 496 -89 q 486 -96 490 -96 q 465 -97 476 -97 q 442 -99 453 -97 q 357 -105 407 -101 q 243 -114 307 -108 q 240 -144 240 -132 q 175 -119 206 -136 q -196 -167 -64 -144 l -199 -167 z "},"J":{"ha":679,"x_min":-153,"x_max":904,"o":"m 160 -182 q -10 -163 60 -185 q -117 -104 -81 -142 q -153 -19 -153 -67 q -129 56 -153 17 q 99 227 -85 129 q 526 418 282 325 q 615 669 583 544 q 647 878 647 794 q 593 989 647 989 q 547 972 574 989 q 399 834 467 921 q 294 659 332 747 q 256 519 256 571 q 258 497 256 508 l 258 494 q 256 489 258 492 q 249 486 253 486 q 124 513 165 481 q 82 606 82 546 q 125 742 82 667 q 247 893 168 818 q 431 1022 326 968 q 633 1082 546 1082 q 769 1017 724 1082 q 815 840 815 951 q 778 614 815 742 q 739 497 767 578 q 801 522 746 500 q 893 567 857 543 q 897 568 894 568 q 902 565 900 568 q 903 557 904 561 q 801 470 843 496 q 707 422 760 444 q 555 133 642 269 q 365 -90 468 -3 q 160 -182 263 -178 m 122 119 q 31 17 61 63 q 1 -58 1 -29 q 13 -86 1 -76 q 44 -96 24 -96 q 181 -38 96 -96 q 356 131 265 19 q 485 332 424 217 q 279 233 369 283 q 122 119 189 182 z "},"K":{"ha":972,"x_min":-8,"x_max":1168,"o":"m 672 -118 q 550 -28 597 -93 q 450 146 503 36 q 379 274 404 240 q 325 340 346 318 q 209 120 247 215 q 158 -32 171 25 q 147 -40 157 -40 q 11 79 11 -25 q 76 265 11 154 q 254 522 142 376 q 318 606 276 550 q 483 826 429 749 q 536 940 536 904 q 500 968 536 968 q 463 963 483 968 q 304 881 385 944 q 171 741 224 817 q 118 615 118 665 q 119 600 118 604 q 118 593 121 596 q 113 590 115 590 q 30 621 68 592 q -8 700 -8 650 q 49 826 -8 756 q 259 988 129 926 q 503 1050 389 1050 q 589 1038 551 1050 q 669 933 669 1010 q 617 773 669 872 q 454 528 564 674 q 831 731 644 610 q 1101 1001 1018 851 q 1108 1006 1103 1006 q 1115 1004 1113 1007 q 1168 876 1168 947 q 1076 701 1168 786 q 766 520 967 600 q 396 407 565 440 q 596 211 503 324 q 718 82 667 126 q 815 20 769 38 q 913 6 860 3 q 919 2 917 6 q 919 -6 921 -1 q 844 -87 893 -47 q 731 -128 796 -128 q 672 -118 701 -128 z "},"L":{"ha":917,"x_min":-112,"x_max":1193,"o":"m -12 -111 q -85 -68 -57 -96 q -112 -10 -112 -40 q -81 43 -112 21 q 81 78 -32 78 q 164 74 118 78 q 283 220 215 133 q 408 389 351 307 q 276 483 319 418 q 232 632 232 549 q 271 799 232 714 q 378 946 310 883 q 536 1014 453 1014 q 608 1001 575 1014 q 663 974 642 989 q 665 969 665 972 q 660 963 664 965 q 522 874 585 936 q 422 734 458 811 q 385 590 385 657 q 458 463 385 496 l 529 571 q 1035 1046 836 1046 q 1100 1031 1067 1046 q 1167 976 1142 1010 q 1193 893 1193 942 q 1132 726 1193 818 q 903 482 1040 588 q 593 367 767 376 q 463 185 522 261 q 336 44 404 110 q 596 -22 446 22 q 985 -90 818 -90 q 1156 -62 1092 -90 l 1158 -61 q 1164 -64 1161 -61 q 1167 -71 1167 -67 q 924 -256 1138 -256 q 653 -206 801 -256 q 310 -75 506 -157 q 229 -40 286 -64 q 119 -98 172 -79 q 25 -117 65 -117 q -12 -111 10 -117 m 660 469 q 872 603 774 508 q 1028 799 969 697 q 1088 951 1088 901 q 1068 976 1088 976 q 920 847 1018 975 q 660 469 822 718 m 22 -43 q 92 1 51 -35 q 50 6 69 6 q -5 -6 14 6 q -24 -29 -24 -17 q -17 -42 -24 -37 q 1 -47 -11 -47 q 22 -43 10 -47 z "},"M":{"ha":1032,"x_min":-147,"x_max":1361,"o":"m 797 -212 q 690 -160 742 -200 q 639 -36 639 -119 q 676 111 639 32 q 858 456 743 256 q 1094 849 974 657 q 916 647 1047 808 q 574 199 785 485 q 560 190 568 192 q 544 192 551 188 q 478 245 508 208 q 447 343 447 282 q 483 525 447 403 q 569 783 518 647 q 119 181 240 375 q -11 -72 -3 -14 q -17 -81 -12 -78 q -26 -82 -21 -83 q -114 -26 -81 -64 q -147 71 -147 13 q -31 336 -147 176 q 210 621 63 464 q 485 898 357 778 q 635 1025 613 1018 q 694 1038 672 1038 q 743 1022 724 1038 q 747 1010 750 1018 q 656 702 711 903 q 600 415 601 501 l 635 457 q 934 803 832 690 q 1120 981 1036 917 q 1269 1046 1204 1046 q 1354 1015 1311 1046 q 1360 1009 1358 1014 q 1358 1000 1361 1004 q 1068 439 1240 792 q 815 -201 896 86 q 797 -212 811 -215 z "},"N":{"ha":944,"x_min":-151,"x_max":1429,"o":"m -6 -193 q -111 -144 -71 -181 q -151 -40 -151 -107 q -64 199 -151 54 q 161 512 17 331 q 435 837 306 693 q 586 988 565 981 q 643 1000 615 1000 q 675 994 661 1000 q 685 981 686 988 q 636 556 669 864 q 596 93 603 249 l 629 165 q 891 713 799 535 q 1076 994 983 892 q 1275 1096 1169 1096 q 1424 1051 1342 1096 q 1429 1043 1429 1050 q 1424 1033 1429 1035 q 1282 915 1375 1015 q 1024 549 1189 815 q 632 -183 858 282 q 625 -192 631 -189 q 614 -192 619 -194 q 501 -136 561 -176 q 435 -33 442 -96 q 463 254 429 22 q 551 783 497 486 q 133 111 246 331 q 3 -185 19 -108 q -6 -193 3 -193 z "},"O":{"ha":843,"x_min":-86,"x_max":933,"o":"m 24 -110 q -86 114 -86 -24 q -31 324 -86 213 q 113 539 24 436 q 108 590 108 564 q 200 853 108 724 q 379 1006 271 951 q 599 1060 488 1060 q 767 1022 690 1060 q 888 906 843 983 q 933 714 933 828 q 932 672 933 686 q 803 284 918 482 q 522 -42 688 86 q 204 -171 357 -171 q 24 -110 100 -171 m 117 186 q 88 69 88 124 q 115 -11 88 18 q 190 -40 143 -40 q 328 8 250 -40 q 497 164 407 57 q 674 435 586 271 q 768 757 768 610 q 718 925 768 864 q 593 986 668 986 q 472 944 533 986 q 363 819 411 901 q 319 722 335 769 l 350 740 q 485 781 422 781 q 579 751 542 781 q 638 688 617 722 l 639 683 q 636 678 639 681 q 629 676 633 675 q 611 678 624 678 q 487 632 560 678 q 339 508 414 586 q 424 419 372 454 q 519 365 475 383 q 524 357 524 363 q 519 350 525 351 q 367 308 444 308 q 217 358 282 308 q 117 186 156 271 z "},"P":{"ha":903,"x_min":76,"x_max":1069,"o":"m 225 -162 q 76 -14 76 -136 q 228 319 76 107 q 399 550 271 382 q 583 803 522 715 q 651 925 644 890 q 663 933 654 936 q 736 849 736 918 q 675 674 736 783 q 496 396 614 565 q 529 392 511 392 q 653 431 583 392 q 799 556 722 471 q 894 695 860 622 q 929 829 929 768 q 885 935 929 896 q 750 975 840 975 l 722 974 q 494 875 600 965 q 324 671 388 785 q 264 494 261 557 q 260 485 264 489 q 251 483 256 482 q 139 540 176 500 q 101 635 101 579 q 160 791 101 708 q 325 940 219 874 q 561 1036 431 1007 q 722 1056 651 1056 q 978 972 888 1056 q 1069 750 1069 888 q 1061 664 1069 710 q 968 480 1040 564 q 801 347 896 396 q 625 297 707 297 q 572 304 600 297 q 468 357 514 319 q 454 339 456 340 q 288 40 333 165 q 235 -156 242 -86 q 225 -162 235 -162 z "},"Q":{"ha":875,"x_min":-57,"x_max":1031,"o":"m 826 -387 q 720 -352 783 -387 q 589 -244 657 -317 q 465 -64 521 -171 q 206 -136 332 -136 q 10 -67 76 -136 q -57 115 -57 1 q -8 327 -57 213 q 134 554 40 442 q 358 758 228 667 q 432 908 383 846 q 542 1003 481 971 q 668 1036 604 1036 q 838 967 763 1036 q 940 765 913 897 q 949 682 949 726 q 863 369 949 535 q 644 76 778 204 l 638 69 q 779 -129 704 -50 q 917 -247 854 -208 q 1021 -290 979 -285 q 1029 -297 1028 -292 q 1025 -307 1031 -303 q 940 -362 992 -337 q 826 -387 889 -387 m 556 238 q 622 335 588 278 q 749 586 708 475 q 789 776 789 697 q 764 882 789 843 q 696 929 739 921 q 665 932 686 932 q 575 897 618 932 q 506 799 532 863 q 476 611 476 726 q 489 456 476 542 q 556 238 513 343 m 401 72 q 321 472 321 253 l 322 521 q 206 353 263 456 q 136 126 150 250 q 135 100 135 117 q 159 19 135 47 q 225 -8 183 -8 q 307 12 261 -8 q 401 72 353 32 z "},"R":{"ha":875,"x_min":58,"x_max":1042,"o":"m 785 -200 q 692 -141 732 -182 q 624 -53 651 -100 q 560 69 597 -7 q 485 203 513 165 q 393 307 438 267 q 244 51 288 153 q 196 -100 201 -51 q 191 -106 194 -104 q 183 -107 188 -108 q 58 36 58 -65 q 185 315 58 138 q 338 519 249 404 q 533 783 463 682 q 607 918 603 885 q 614 924 607 924 q 690 839 690 907 q 630 667 690 774 q 450 390 569 561 q 485 386 467 386 q 608 425 539 386 q 751 549 676 464 q 846 688 811 615 q 881 819 881 760 q 838 924 881 885 q 708 963 794 963 q 676 961 688 963 q 449 864 554 953 q 281 663 343 775 q 221 488 218 550 q 217 479 221 482 q 207 478 213 476 q 96 533 132 494 q 60 626 60 572 q 119 781 60 699 q 282 929 178 863 q 517 1025 386 996 q 676 1043 601 1043 q 930 961 839 1043 q 1021 743 1021 879 q 1011 656 1021 699 q 913 465 989 551 q 738 332 836 379 q 558 292 639 285 q 708 138 640 219 q 833 6 781 51 q 931 -58 885 -40 q 1031 -72 976 -75 q 1038 -76 1035 -72 q 1039 -86 1042 -81 q 959 -170 1008 -131 q 844 -210 910 -210 q 785 -200 814 -210 m 424 350 l 422 350 l 422 349 l 424 350 z "},"S":{"ha":736,"x_min":-51,"x_max":936,"o":"m 253 -164 q 85 -145 154 -165 q -17 -90 17 -125 q -51 -12 -51 -54 q -13 74 -51 32 q 94 140 25 115 q 404 226 238 194 q 326 333 382 264 q 235 467 265 411 q 204 589 204 522 q 249 740 204 663 q 390 918 308 849 q 557 1019 472 988 q 718 1050 642 1050 q 821 1032 775 1050 q 903 960 878 1008 q 929 847 929 911 q 908 722 929 786 q 853 610 886 657 q 678 519 789 519 q 554 544 615 519 q 550 551 550 547 q 554 557 550 556 q 656 628 597 574 q 771 793 715 682 q 797 885 797 844 q 781 929 797 914 q 736 944 765 944 q 610 895 682 944 q 476 758 538 846 q 407 574 407 660 q 429 470 407 519 q 501 339 451 421 q 554 250 544 267 q 772 264 671 264 q 931 249 885 264 q 936 240 936 246 q 929 232 936 233 q 589 183 747 211 l 593 175 q 628 42 628 100 q 253 -164 628 -151 m 169 4 q 213 1 197 1 q 371 34 301 1 q 440 124 440 67 q 438 147 440 131 q 436 154 436 150 q 200 86 279 119 q 121 29 121 53 q 133 14 121 21 q 169 4 146 7 z "},"T":{"ha":483,"x_min":51,"x_max":1317,"o":"m 279 -144 q 161 -72 201 -122 q 121 50 121 -22 q 124 85 121 60 q 217 347 138 200 q 390 624 296 494 q 554 831 485 753 l 597 876 q 535 886 576 881 q 364 899 439 899 q 177 880 251 899 q 63 839 103 861 q 58 838 61 838 q 53 840 56 838 q 53 847 51 843 q 190 980 85 933 q 479 1026 296 1026 q 565 1024 504 1026 q 804 1013 721 1015 l 821 1013 q 1015 1008 922 1008 q 1304 1036 1243 1008 q 1312 1035 1308 1038 q 1315 1029 1315 1033 l 1317 1001 q 1255 850 1317 894 q 1079 806 1193 806 q 933 817 1013 806 q 733 853 854 829 q 458 388 556 596 q 329 56 361 181 q 293 -135 297 -69 q 289 -143 293 -140 q 279 -144 285 -146 z "},"U":{"ha":904,"x_min":57,"x_max":1239,"o":"m 676 -171 q 647 -172 668 -172 q 544 -145 589 -172 q 500 -46 500 -118 q 592 210 500 50 q 385 24 465 75 q 296 -3 344 -3 q 190 41 233 -3 q 146 161 146 85 q 185 313 146 228 q 310 500 225 399 q 527 771 454 672 q 600 914 600 869 q 564 943 600 943 q 525 938 546 943 q 366 854 447 919 q 231 711 285 789 q 176 585 176 633 q 178 568 176 574 l 178 565 q 169 558 178 558 q 92 586 126 560 q 57 658 57 613 q 115 789 57 715 q 321 951 196 889 q 556 1014 446 1014 q 640 1001 603 1014 q 732 886 732 968 q 503 479 732 756 q 360 282 408 365 q 313 151 313 199 q 333 108 313 121 q 454 182 360 93 q 661 400 549 271 q 853 631 774 529 q 1014 858 939 743 q 1104 1013 1089 972 q 1121 1022 1108 1022 q 1236 936 1225 1003 q 1195 842 1239 917 q 1057 619 1151 768 q 781 163 883 349 q 678 -118 678 -24 q 685 -156 678 -139 l 686 -160 q 683 -167 686 -164 q 676 -171 681 -171 z "},"V":{"ha":806,"x_min":-86,"x_max":1075,"o":"m 301 -181 q 117 38 117 -142 q 159 235 117 129 q 251 424 201 340 q 403 700 351 594 q 456 860 456 806 q 404 910 456 910 q 368 906 389 910 q 222 822 292 888 q 108 678 151 757 q 65 544 65 599 q 67 525 65 531 l 67 522 q 63 515 67 518 q 56 513 60 511 q -8 534 25 515 q -64 584 -42 553 q -86 656 -86 615 q -37 775 -86 713 q 165 952 53 893 q 378 1011 276 1011 q 488 988 440 1011 q 565 921 539 960 q 590 826 590 882 q 560 680 590 765 q 469 474 531 594 q 337 169 372 283 q 301 -3 301 54 q 306 -35 301 -25 q 555 323 424 122 q 793 721 686 524 q 881 922 860 844 q 903 1038 903 999 q 911 1049 903 1047 q 963 1056 939 1056 q 1044 1026 1013 1056 q 1075 936 1075 996 q 976 667 1075 833 q 646 203 840 440 q 322 -175 451 -33 q 301 -181 315 -185 z "},"W":{"ha":1167,"x_min":-122,"x_max":1335,"o":"m 676 -178 q 599 -134 628 -174 q 571 -1 571 -94 q 601 235 571 97 q 428 -9 511 90 q 292 -161 346 -108 q 258 -171 275 -175 q 79 46 79 -131 q 121 243 79 139 q 214 433 163 347 q 367 710 315 606 q 419 868 419 814 q 369 919 419 919 q 331 914 351 919 q 185 831 254 896 q 72 686 115 765 q 28 554 28 607 q 31 531 28 544 q 29 524 32 528 q 24 521 26 521 q -41 542 -7 524 q -99 592 -75 560 q -122 665 -122 624 q -75 785 -122 724 q 128 961 15 901 q 340 1021 240 1021 q 450 997 403 1021 q 527 931 501 969 q 553 835 553 892 q 523 688 553 774 q 432 482 493 603 q 299 178 335 292 q 264 7 264 64 q 268 -25 264 -15 q 392 121 314 6 q 571 436 471 236 q 743 546 625 546 q 807 538 776 546 q 817 528 814 535 q 819 515 821 522 q 768 293 794 426 q 742 50 742 160 q 743 3 742 18 q 887 190 790 43 q 1060 521 983 338 q 1136 860 1136 704 q 1106 1024 1136 956 l 1104 1028 q 1115 1039 1104 1036 l 1142 1040 q 1275 1001 1215 1040 q 1335 850 1335 961 q 1307 690 1335 782 q 1095 224 1224 422 q 847 -78 967 25 q 676 -178 728 -182 z "},"X":{"ha":722,"x_min":-337,"x_max":1176,"o":"m -49 -104 q -154 -135 -100 -135 q -266 -101 -215 -135 q -337 -17 -317 -67 l -337 -14 q -329 -4 -337 -7 q -106 87 -258 0 q 292 422 46 174 q 261 595 271 526 q 251 739 251 664 q 256 842 251 788 q 283 931 260 893 q 338 988 307 968 q 394 1010 368 1007 q 402 1005 400 1010 q 401 994 404 1000 q 381 897 381 969 q 447 581 381 771 l 517 650 q 753 885 669 806 q 910 1010 838 964 q 1053 1061 992 1061 q 1134 1031 1106 1061 q 1176 965 1163 1001 l 1176 963 q 1168 956 1176 956 q 1022 884 1128 954 q 780 700 917 814 q 515 460 643 586 q 501 446 510 451 l 513 422 q 690 133 603 224 q 835 18 776 42 q 840 10 839 15 q 836 3 840 6 q 754 -41 804 -21 q 650 -61 704 -61 q 454 44 536 -61 q 335 274 385 135 l 236 168 q 65 -11 129 51 q -49 -104 1 -74 z "},"Y":{"ha":875,"x_min":32,"x_max":1214,"o":"m 396 -210 q 296 -235 346 -235 q 176 -196 226 -235 q 97 -114 125 -157 q 96 -110 96 -112 q 104 -101 96 -101 q 236 -60 154 -96 q 438 78 318 -24 q 686 363 557 181 q 523 210 597 267 q 371 153 449 153 q 318 161 344 153 q 228 217 257 181 q 200 304 200 254 q 223 403 200 350 q 285 508 246 457 l 386 642 q 528 831 483 767 q 572 926 572 896 q 539 951 572 951 q 500 946 533 951 q 340 863 422 928 q 204 719 258 797 q 150 592 150 642 q 153 575 150 586 q 151 569 154 572 q 146 567 149 567 q 67 594 103 568 q 32 667 32 621 q 90 797 32 726 q 296 960 171 897 q 531 1022 421 1022 q 615 1010 578 1022 q 701 907 701 979 q 647 747 701 847 q 476 488 593 646 q 364 269 364 333 q 396 235 364 235 q 506 296 431 235 q 669 451 581 357 q 828 639 757 544 q 992 872 917 757 q 1079 1024 1067 988 q 1092 1031 1083 1031 q 1167 1006 1131 1025 q 1211 944 1203 988 q 1183 874 1214 929 q 1081 707 1151 819 q 1042 646 1058 674 q 1013 599 1025 618 l 981 547 q 664 61 817 276 q 396 -210 511 -154 z "},"Z":{"ha":806,"x_min":-81,"x_max":1050,"o":"m 11 -136 q -3 -132 4 -136 q -49 -81 -29 -108 q -81 19 -81 -33 q -51 118 -81 72 q 153 372 15 222 q 461 664 292 521 q 785 893 631 807 q 410 817 585 865 q 196 699 235 769 q 190 694 194 694 q 182 699 185 694 q 154 803 154 750 q 199 922 154 869 q 326 1003 244 975 q 599 1040 407 1029 q 953 1050 792 1050 q 995 1040 975 1050 q 1028 1014 1015 1031 q 1050 958 1049 986 q 1043 944 1050 951 q 821 769 964 889 q 503 460 678 650 q 207 58 328 271 q 560 132 392 117 q 597 133 574 133 q 762 65 721 133 q 803 -75 803 -3 q 798 -84 803 -81 q 788 -85 793 -87 q 592 -60 717 -60 q 17 -136 375 -60 l 11 -136 z "},"a":{"ha":633,"x_min":0,"x_max":817,"o":"m 375 -37 q 306 138 306 4 q 308 194 306 158 q 142 -12 215 85 q 130 -20 138 -18 q 117 -21 122 -22 q 30 32 60 -1 q 0 126 0 65 q 47 322 0 203 q 159 530 90 432 q 305 688 228 628 q 449 747 382 747 q 499 736 474 747 q 599 600 578 700 l 599 599 q 593 591 599 593 q 585 594 588 589 q 524 628 561 628 q 356 513 456 628 q 238 332 278 424 q 183 165 199 240 l 183 164 q 190 156 183 158 q 200 160 196 154 q 374 397 283 283 q 503 513 464 511 q 562 496 539 515 q 594 447 585 476 q 511 284 543 369 q 479 153 479 199 q 494 124 479 124 q 526 142 507 124 q 656 307 578 189 q 788 519 733 425 q 798 526 792 525 q 810 522 804 526 q 813 506 817 515 q 733 355 807 496 q 558 85 658 214 q 399 -43 458 -43 q 375 -37 385 -43 z "},"b":{"ha":625,"x_min":-15,"x_max":718,"o":"m 78 -28 q 15 -3 46 -26 q -15 82 -15 19 q 14 215 -15 138 q 163 544 58 340 q 381 903 268 749 q 567 1058 493 1058 q 632 1004 608 1058 q 631 993 636 999 q 497 803 603 971 q 289 444 392 635 q 474 638 381 556 q 636 719 568 719 q 664 715 651 719 q 718 619 718 696 q 654 401 718 533 q 501 158 590 269 q 343 18 411 47 q 251 -1 296 -1 q 166 24 200 -1 q 119 93 132 50 q 86 -19 90 21 q 78 -28 86 -28 m 213 103 q 336 217 256 111 q 483 447 417 324 q 549 610 549 569 q 544 622 549 618 q 414 506 526 640 q 175 201 301 372 q 158 154 158 181 q 168 121 158 136 q 213 103 182 97 z "},"c":{"ha":589,"x_min":-6,"x_max":779,"o":"m 204 -43 q 53 9 111 -46 q -6 161 -6 64 q 78 415 -6 275 q 299 663 176 582 q 529 743 421 743 q 631 722 589 743 q 690 635 690 693 q 632 511 690 578 q 525 460 588 460 q 485 465 501 460 q 482 469 482 467 q 483 474 482 472 q 553 561 528 517 q 579 632 579 606 q 574 649 579 643 q 560 656 569 656 q 497 626 539 656 q 393 532 454 596 q 246 324 297 432 q 194 142 194 217 q 208 83 194 104 q 246 61 221 61 q 290 75 267 61 q 536 270 397 133 q 751 535 675 407 q 761 542 754 540 q 774 540 768 543 q 779 531 779 539 q 775 517 779 524 q 622 297 732 432 q 396 60 513 163 q 204 -43 279 -42 z "},"d":{"ha":625,"x_min":14,"x_max":940,"o":"m 357 -28 q 299 118 299 21 q 310 208 299 156 q 160 -15 182 19 q 149 -23 156 -21 q 136 -22 142 -25 q 14 149 14 21 q 57 339 14 221 q 159 533 94 440 q 292 685 224 626 q 408 744 360 743 q 499 733 460 747 q 565 697 539 718 q 749 967 675 875 q 875 1060 822 1060 q 938 1003 914 1060 q 936 990 940 996 q 781 764 885 924 q 554 372 678 604 q 449 117 449 175 q 460 99 449 99 q 574 208 488 99 q 782 519 660 318 q 792 526 785 525 q 804 524 799 528 q 811 515 810 521 q 810 503 813 508 l 765 426 q 550 89 643 218 q 390 -40 457 -40 q 357 -28 372 -40 m 169 147 q 298 287 192 143 q 490 574 404 431 l 542 657 q 399 561 488 654 q 276 399 335 496 q 185 226 217 303 q 169 147 154 150 z "},"e":{"ha":482,"x_min":-14,"x_max":665,"o":"m 147 -61 q 33 -17 79 -61 q -14 114 -14 26 q 68 383 -14 226 q 205 588 131 506 q 349 708 279 669 q 474 746 418 746 q 540 726 514 746 q 588 628 588 693 q 546 486 588 564 q 446 353 504 408 q 343 293 388 297 q 226 325 269 288 q 156 124 156 197 q 200 67 156 67 q 303 115 238 67 q 476 299 383 178 q 635 521 568 419 q 644 528 638 526 q 657 525 651 529 q 664 515 663 522 q 663 503 665 508 q 372 97 503 254 q 147 -61 240 -61 m 250 367 q 271 363 261 363 q 438 499 335 363 q 483 570 468 539 q 499 618 499 601 q 485 635 499 635 q 400 576 458 635 q 272 404 342 517 q 250 367 264 392 z "},"f":{"ha":500,"x_min":-83,"x_max":743,"o":"m 101 -149 q 40 -158 68 -158 q -49 -126 -14 -158 q -83 -21 -83 -93 q 61 381 -83 121 q 394 899 254 731 q 639 1067 533 1067 q 714 1044 679 1067 q 743 986 743 1026 q 707 888 743 943 q 594 772 671 832 q 401 658 517 711 l 353 586 l 324 539 q 400 538 347 538 q 610 571 556 538 q 615 570 613 572 q 617 565 618 568 q 589 507 613 536 q 514 471 565 478 q 478 469 503 469 q 329 485 415 469 q 349 361 349 436 q 313 149 349 261 q 221 -47 278 36 q 101 -149 164 -131 m 468 753 q 651 935 611 865 q 667 971 667 960 q 642 962 667 983 q 571 887 617 940 q 468 753 525 833 m 151 50 q 256 286 232 179 q 278 463 281 393 q 130 169 185 304 q 75 -14 75 35 q 83 -31 75 -31 q 151 50 101 -31 z "},"g":{"ha":583,"x_min":-83,"x_max":767,"o":"m 113 -299 q 1 -269 50 -299 q -81 -204 -49 -240 q -83 -199 -83 -201 q -81 -194 -83 -196 q -74 -193 -78 -192 q -32 -200 -53 -200 q 65 -169 14 -200 q 165 -69 115 -139 q 442 368 272 78 q 178 24 369 288 q 162 1 168 11 q 150 -14 156 -8 q 138 -23 146 -21 q 122 -24 131 -25 q 26 26 71 -11 q -19 136 -19 63 q 4 242 -19 183 q 141 501 60 383 q 306 685 222 618 q 454 753 390 753 q 583 686 544 753 q 672 751 636 756 q 734 726 713 746 q 764 685 756 706 q 760 672 767 676 q 526 271 704 643 l 496 206 q 370 -49 422 49 q 256 -219 318 -147 q 132 -297 194 -292 l 113 -299 m 144 103 q 237 184 165 96 q 408 421 308 272 q 488 543 456 492 l 546 633 q 533 635 542 635 q 393 538 479 635 q 277 376 343 479 q 170 190 211 272 q 144 103 129 107 z "},"h":{"ha":625,"x_min":-28,"x_max":807,"o":"m 364 -68 q 269 51 269 -57 q 293 178 269 107 q 353 321 317 250 l 399 408 q 427 464 407 425 q 457 525 447 503 q 467 556 467 547 q 381 479 467 579 q 75 -22 231 310 q 65 -28 72 -28 q 3 -3 33 -26 q -28 83 -28 19 q 0 215 -28 142 q 151 545 46 342 q 368 903 256 749 q 554 1057 481 1057 q 619 1003 596 1057 q 617 993 622 999 q 493 817 590 972 q 294 479 396 663 q 434 634 371 578 q 535 685 497 690 q 602 653 575 681 q 629 579 629 626 q 583 439 629 521 q 478 232 526 339 q 431 92 431 125 q 436 79 431 79 q 457 92 443 79 q 613 281 515 144 q 776 519 710 417 q 786 526 779 525 q 799 524 793 528 q 806 515 804 521 q 804 503 807 508 q 567 124 704 325 q 364 -68 431 -76 z "},"i":{"ha":331,"x_min":-44,"x_max":572,"o":"m 433 769 q 397 801 410 779 q 383 850 383 822 q 394 897 383 876 q 434 943 408 926 q 489 960 460 960 q 549 935 526 960 q 572 874 572 910 q 561 825 572 846 q 522 779 547 796 q 467 763 496 763 q 433 769 451 763 m 139 -17 q 54 -47 97 -47 q -17 -17 11 -47 q -44 72 -44 13 q 33 311 -44 169 q 188 585 139 504 q 261 685 238 665 q 319 710 285 704 q 339 711 326 711 q 410 686 381 711 q 413 667 418 676 q 283 441 357 575 q 157 190 208 307 q 138 129 138 143 q 144 119 138 119 q 272 242 169 119 q 485 521 374 364 q 495 527 489 526 q 507 524 501 528 q 513 515 513 521 q 511 504 514 508 q 311 197 424 364 q 139 -17 199 31 z "},"j":{"ha":243,"x_min":-442,"x_max":575,"o":"m 436 790 q 399 822 413 800 q 386 871 386 844 q 396 917 386 896 q 435 963 410 946 q 489 979 461 979 q 524 972 510 979 q 562 941 549 963 q 575 892 575 919 q 564 846 575 871 q 524 800 550 817 q 469 783 499 783 q 436 790 454 783 m -237 -451 q -439 -362 -332 -451 q -440 -356 -442 -360 q -435 -353 -439 -351 q -403 -356 -412 -356 q -211 -233 -290 -356 q -124 -65 -162 -146 q 32 265 -51 81 q 158 531 113 442 q 253 676 204 621 q 353 732 301 732 q 438 694 392 732 q 436 683 442 688 q 301 463 399 663 q 42 -86 203 264 q -17 -215 0 -182 q -115 -387 -64 -324 q -237 -451 -167 -451 z "},"k":{"ha":622,"x_min":-17,"x_max":813,"o":"m 328 -67 q 226 33 256 -58 q 190 232 197 124 q 122 102 161 183 q 85 -21 83 21 q 78 -28 85 -28 q 14 -3 44 -26 q -17 83 -17 19 q 13 215 -17 138 q 163 545 58 342 q 381 903 268 749 q 567 1057 493 1057 q 633 1000 610 1057 q 631 994 633 996 q 503 815 607 982 q 294 457 399 649 q 603 689 497 689 q 621 688 615 689 q 663 663 649 682 q 676 617 676 644 q 633 495 676 564 q 513 366 590 426 q 342 278 436 306 q 265 261 297 265 q 334 125 300 169 q 404 81 368 81 q 476 115 435 81 q 786 521 553 183 q 795 526 789 526 q 806 522 801 526 q 808 507 813 515 q 568 128 714 335 q 328 -67 422 -78 m 286 365 q 425 453 354 379 q 495 531 472 500 q 518 572 518 563 q 481 564 518 588 q 396 492 444 540 q 286 365 349 444 z "},"l":{"ha":319,"x_min":-18,"x_max":636,"o":"m 68 -57 q 45 -51 64 -57 q 4 -18 26 -46 q -18 68 -18 10 q 13 215 -18 129 q 163 545 58 342 q 381 903 268 749 q 567 1057 493 1057 q 633 1000 610 1057 q 632 994 636 999 q 560 905 615 985 q 434 706 506 825 q 300 464 363 586 q 184 222 226 322 q 142 90 142 122 q 150 78 142 78 q 186 104 160 78 q 328 288 239 160 q 485 519 418 417 q 494 526 488 525 q 506 522 501 526 q 508 506 514 517 q 290 142 383 267 q 146 -20 197 17 q 68 -57 94 -57 z "},"m":{"ha":921,"x_min":-47,"x_max":1117,"o":"m 619 -64 q 550 42 550 -39 q 590 202 550 108 q 700 418 631 296 q 742 515 742 492 q 721 517 742 532 q 659 456 700 503 q 561 328 618 408 q 425 96 460 186 q 390 -33 390 6 q 389 -36 390 -35 q 386 -37 388 -37 q 247 81 247 -31 q 295 245 247 154 q 410 436 343 336 l 435 474 q 454 521 454 506 q 437 526 454 535 q 385 480 419 517 q 303 376 351 443 q 153 121 193 222 q 108 -32 113 19 q 103 -36 108 -36 q -12 9 22 -18 q -47 79 -47 36 q -24 172 -47 118 q 60 342 0 226 l 110 438 q 205 626 179 571 q 228 707 231 682 q 230 713 228 710 q 235 715 232 715 q 357 629 357 725 q 317 489 357 572 q 539 693 431 626 q 625 721 585 721 q 677 704 657 721 q 707 668 697 688 q 710 656 710 660 q 706 643 710 650 q 576 440 638 554 q 846 694 731 639 q 918 713 882 713 q 977 694 954 713 q 1013 654 1000 676 q 1015 643 1015 646 q 1010 628 1015 633 q 849 393 919 517 q 765 224 796 301 q 735 110 735 146 q 747 88 735 88 q 797 126 763 88 q 947 319 857 193 q 1089 521 1038 444 q 1099 527 1092 526 q 1110 524 1106 528 q 1113 506 1117 514 q 869 124 1003 315 q 640 -67 735 -67 q 619 -64 626 -67 z "},"n":{"ha":618,"x_min":-56,"x_max":808,"o":"m 360 -86 q 272 -49 300 -83 q 243 42 243 -15 q 278 190 243 103 q 413 436 321 296 l 436 475 q 456 524 456 506 q 438 528 456 538 q 386 481 421 518 q 301 375 351 443 q 152 122 194 225 q 104 -37 110 18 q 99 -44 103 -42 q 90 -46 94 -47 q -22 -1 13 -28 q -56 69 -56 26 q -31 167 -56 110 q 53 339 -7 224 l 90 411 q 199 630 168 564 q 229 725 229 696 q 232 733 229 729 q 239 738 235 738 q 361 646 361 744 q 315 489 361 589 q 551 710 433 638 q 639 739 601 739 q 724 685 694 739 q 726 674 726 679 q 721 658 726 667 q 566 390 640 528 q 451 150 492 253 q 431 76 431 96 q 439 64 431 64 q 559 189 465 64 q 778 521 653 314 q 790 528 782 528 q 801 525 799 528 q 807 516 806 522 q 806 504 808 510 q 573 114 707 318 q 360 -86 439 -90 z "},"o":{"ha":525,"x_min":-29,"x_max":601,"o":"m 131 -40 q 16 6 61 -40 q -29 136 -29 51 q 29 344 -29 229 q 132 503 81 446 q 226 574 183 560 q 288 685 235 639 q 414 732 342 732 q 525 684 482 732 q 568 550 568 636 q 544 418 568 489 q 589 421 574 418 l 590 421 q 599 414 597 421 q 596 403 601 407 q 528 372 556 381 q 507 325 518 346 q 322 44 410 128 q 131 -40 233 -40 m 424 449 q 476 638 476 574 q 453 681 476 681 q 381 625 425 681 q 353 553 353 589 q 372 495 353 522 q 424 449 390 468 m 143 172 q 125 103 125 132 q 150 68 125 68 q 242 134 183 68 q 369 333 301 200 l 386 367 q 328 392 351 376 q 276 431 304 406 q 143 172 185 268 z "},"p":{"ha":592,"x_min":-197,"x_max":678,"o":"m -51 -296 q -162 -260 -128 -289 q -197 -183 -197 -232 q -159 -44 -197 -128 q -39 179 -121 39 q 165 545 106 429 q 224 713 224 661 q 222 728 224 724 l 222 731 q 225 737 222 733 q 232 740 228 740 q 331 720 300 742 q 361 654 361 699 q 321 518 361 606 q 471 669 396 606 q 599 732 546 732 q 657 702 636 732 q 678 619 678 672 q 617 406 678 531 q 436 156 556 281 q 300 42 363 78 q 189 7 238 7 q 124 27 151 7 q 85 79 97 47 q -10 -151 17 -60 q -39 -286 -37 -243 q -42 -294 -39 -292 q -51 -296 -46 -297 m 129 153 q 223 190 163 146 q 376 350 283 233 q 470 484 438 426 q 503 567 503 542 q 493 583 503 582 q 401 524 469 588 q 231 332 332 461 q 179 254 204 300 q 126 160 149 204 l 129 153 z "},"q":{"ha":583,"x_min":0,"x_max":792,"o":"m 363 -299 q 321 -301 332 -301 q 190 -178 190 -301 q 254 52 190 -87 q 411 332 318 192 q 274 157 361 278 q 144 -26 186 36 q 126 -32 138 -36 q 35 25 69 -17 q 0 138 0 67 q 54 346 0 224 q 240 637 139 536 q 450 738 340 738 q 576 674 546 738 q 683 738 636 738 q 753 728 728 738 q 789 708 779 719 q 792 704 792 707 q 789 699 792 701 q 688 565 750 657 q 550 307 626 474 q 413 -60 449 88 q 371 -289 376 -208 q 363 -299 371 -296 m 168 129 q 215 166 183 126 q 307 296 246 206 q 393 419 363 379 q 453 507 414 449 q 532 619 513 593 q 513 624 524 624 q 403 550 465 624 q 284 388 346 486 q 188 210 222 289 q 168 129 153 132 z "},"r":{"ha":422,"x_min":32,"x_max":607,"o":"m 129 -86 q 32 22 32 -65 q 86 193 32 86 q 164 330 121 263 q 215 411 207 397 q 291 535 268 493 q 314 606 314 578 q 288 661 314 632 q 223 561 257 614 q 168 481 189 508 q 128 438 150 456 q 107 431 107 419 q 136 490 107 442 q 175 554 153 515 l 260 689 q 228 727 239 710 q 217 765 217 744 q 219 788 217 779 q 261 865 233 835 q 321 896 289 896 q 361 879 342 896 q 371 851 371 871 q 322 719 371 813 l 407 636 q 447 549 447 596 q 419 453 447 506 q 317 289 390 400 q 218 121 250 189 q 206 53 186 53 q 260 92 221 53 q 422 291 329 160 q 579 521 515 422 q 590 526 583 526 q 600 522 596 526 q 603 507 607 515 q 438 232 532 374 q 258 -2 343 90 q 129 -86 172 -94 z "},"s":{"ha":469,"x_min":-33,"x_max":656,"o":"m 649 526 q 656 514 656 522 q 650 499 656 506 q 504 319 578 390 q 338 196 431 249 q 374 112 361 150 q 386 33 386 74 q 338 -72 386 -36 q 215 -107 289 -107 q 115 -90 164 -107 q 7 -22 47 -68 q -33 69 -33 24 q -29 96 -33 83 q 0 124 -22 117 l 19 131 q 211 208 146 176 q 185 275 200 242 q 153 363 164 326 q 142 438 142 399 q 144 472 142 450 q 194 626 156 554 q 280 740 233 697 q 354 782 326 782 q 463 740 428 782 q 513 792 488 775 q 550 806 531 806 q 602 781 579 806 q 628 729 625 757 q 624 725 628 725 q 557 685 599 724 q 479 595 515 647 q 435 506 443 543 q 426 500 435 497 q 385 567 385 515 q 407 650 385 603 q 330 517 361 601 q 299 351 299 432 q 315 253 299 292 q 484 367 403 294 q 622 517 565 440 q 649 526 632 533 m 188 6 q 236 76 236 6 q 231 132 236 104 q 86 65 168 99 q 80 56 81 63 q 85 46 79 50 q 128 18 101 31 q 188 6 154 6 z "},"t":{"ha":318,"x_min":-28,"x_max":625,"o":"m 58 -69 q 35 -64 54 -69 q -6 -31 17 -58 q -28 54 -28 -3 q 4 203 -28 118 q 100 425 35 289 q 240 688 165 561 q 60 643 94 671 q 56 643 58 642 q 54 646 54 644 q 78 717 56 681 q 156 764 100 754 q 290 771 213 774 q 439 970 369 896 q 558 1044 508 1044 q 624 990 600 1044 q 621 981 625 985 q 563 909 606 969 q 467 761 519 849 q 517 753 504 757 q 565 697 557 740 q 563 692 565 694 q 558 692 561 690 q 429 700 511 701 q 290 451 344 556 q 176 210 218 311 q 133 78 133 110 q 140 65 133 65 q 176 92 151 65 q 319 276 229 147 q 475 507 408 404 q 485 513 479 513 q 497 510 492 514 q 500 493 504 503 q 282 129 375 254 q 137 -33 189 4 q 58 -69 85 -69 z "},"u":{"ha":611,"x_min":-14,"x_max":811,"o":"m 306 -79 q 244 47 244 -53 q 268 196 244 107 l 124 -31 q 107 -36 117 -40 q 15 18 43 -15 q -14 103 -14 51 q 26 276 -14 160 q 87 410 49 339 q 179 569 125 481 q 241 679 222 643 q 258 729 260 715 q 258 732 257 731 q 261 733 260 733 q 317 739 290 739 q 390 686 390 739 q 362 597 390 650 q 281 461 333 543 q 183 280 222 371 q 143 154 143 189 q 153 142 143 138 q 198 185 171 150 q 292 319 225 221 l 368 431 l 449 550 q 553 697 518 657 q 624 738 588 738 q 683 726 658 738 q 721 700 707 714 q 722 692 725 697 q 615 540 683 644 q 476 293 547 435 q 392 72 392 125 q 403 54 392 54 q 485 122 425 54 q 783 524 590 244 q 793 530 786 529 q 806 526 800 531 q 810 518 810 524 q 808 507 811 513 q 673 286 760 421 q 486 34 586 151 q 324 -83 386 -83 q 306 -79 314 -83 z "},"v":{"ha":497,"x_min":-14,"x_max":631,"o":"m 115 -40 q -14 106 -14 -4 q 8 220 -14 158 q 75 375 31 282 q 181 575 110 450 q 238 681 221 646 q 251 731 254 715 q 252 736 250 733 q 257 739 254 739 q 289 742 279 742 q 356 723 333 742 q 379 672 379 704 q 360 607 379 643 q 253 397 313 519 q 158 172 194 274 q 144 113 144 132 q 153 99 144 99 q 226 170 172 99 q 344 361 279 242 q 448 599 418 499 q 482 750 478 699 q 490 761 482 757 q 540 769 514 769 q 605 747 579 769 q 631 675 631 724 q 533 422 631 585 q 322 137 433 256 q 115 -40 210 18 z "},"w":{"ha":789,"x_min":-21,"x_max":931,"o":"m 106 -49 q 8 7 38 -31 q -21 100 -21 44 q -1 212 -21 150 q 58 364 19 274 q 154 560 82 419 q 208 669 192 632 q 224 724 225 707 q 224 730 222 726 q 231 733 226 733 q 268 738 251 738 q 332 719 310 738 q 354 668 354 700 q 336 604 354 643 q 238 394 293 521 q 150 164 182 268 q 140 114 140 135 q 154 93 140 93 q 201 121 171 93 q 267 199 232 149 q 303 274 292 232 q 347 396 322 338 q 470 618 414 550 q 579 686 526 686 q 651 658 615 686 q 653 649 656 654 q 558 489 614 592 q 465 265 503 386 q 440 153 440 189 q 454 125 440 125 q 524 187 476 125 q 638 367 571 249 q 793 771 793 663 l 792 788 q 792 793 790 790 q 797 796 794 796 q 872 769 833 794 q 921 674 910 743 q 837 448 931 611 q 619 140 743 285 q 428 -19 496 -4 q 392 -24 410 -24 q 317 8 346 -24 q 282 99 288 40 q 121 -46 200 10 q 106 -49 114 -50 z "},"x":{"ha":564,"x_min":-61,"x_max":747,"o":"m -17 -65 q -61 19 -61 -29 q 232 349 -61 139 q 267 606 249 535 q 269 622 269 613 q 235 590 269 642 q 164 475 200 539 q 154 468 161 469 q 142 471 147 467 q 135 480 136 474 q 136 492 133 486 l 151 517 q 202 597 157 526 q 282 703 247 667 q 396 750 329 754 q 401 747 399 750 q 401 742 403 744 q 378 636 390 707 q 363 456 365 565 q 560 630 481 553 q 654 742 640 707 q 658 746 656 744 q 663 744 661 747 q 697 675 697 718 q 681 615 697 647 q 638 564 667 588 q 549 497 610 540 q 483 450 539 490 q 363 354 426 410 q 388 142 365 193 q 408 126 393 126 q 551 261 454 126 q 715 513 647 396 q 726 519 719 518 q 738 517 732 521 q 740 499 747 510 q 586 234 678 382 q 411 10 494 86 q 315 -42 358 -42 q 242 29 265 -42 q 222 222 218 100 q 71 51 126 125 q -7 -64 15 -22 q -11 -67 -8 -67 q -17 -65 -14 -68 z "},"y":{"ha":556,"x_min":-97,"x_max":753,"o":"m 96 -307 q -12 -278 36 -307 q -94 -215 -61 -250 q -97 -210 -97 -212 q -94 -204 -97 -207 q -87 -203 -92 -201 q -47 -208 -71 -208 q 151 -78 57 -208 q 428 358 257 69 q 125 -36 333 253 q 12 15 58 -25 q -35 125 -35 56 q -11 232 -35 174 q 113 461 14 294 q 215 645 182 582 q 243 733 247 708 q 244 740 242 736 q 250 743 247 743 q 278 744 260 744 q 360 719 332 744 q 388 650 388 694 q 319 481 388 576 q 182 263 244 375 q 119 111 119 151 q 132 94 119 94 q 227 182 157 94 q 393 413 297 269 q 442 488 422 456 q 476 540 463 519 q 584 697 544 649 q 657 742 624 746 q 720 716 699 736 q 750 674 742 696 q 746 664 753 668 q 513 261 690 638 q 485 203 504 242 q 359 -53 413 47 q 242 -226 306 -153 q 117 -306 179 -300 l 96 -307 z "},"z":{"ha":528,"x_min":-28,"x_max":714,"o":"m 33 -22 q 1 10 24 -22 q -28 93 -28 51 q 25 196 -28 151 q 239 372 103 261 q 524 608 424 519 q 385 568 454 585 q 272 551 315 551 q 142 608 175 551 q 108 726 108 665 q 112 733 108 731 q 118 732 115 735 q 242 717 144 717 q 451 728 332 717 q 622 746 571 739 q 714 661 667 751 q 574 495 663 586 q 350 275 486 404 q 194 124 188 117 q 291 151 244 142 q 401 161 338 160 q 503 108 478 161 q 528 3 528 56 q 525 -2 528 0 q 519 -3 522 -4 q 365 14 453 14 q 33 -22 219 14 z "},".":{"ha":415,"x_min":42,"x_max":249,"o":"m 124 -6 q 65 17 88 -6 q 42 76 42 40 q 80 160 42 124 q 165 197 118 197 q 226 174 203 197 q 249 118 249 151 q 210 32 249 69 q 124 -6 172 -6 z "},",":{"ha":510,"x_min":-139,"x_max":176,"o":"m -42 -196 q -139 -179 -100 -196 q -44 -60 -92 -150 q 39 139 3 29 q 136 84 96 114 q 176 26 176 54 q 135 -54 176 0 q 41 -152 93 -108 q -42 -196 -11 -196 z "},":":{"ha":756,"x_min":153,"x_max":560,"o":"m 436 347 q 376 370 399 347 q 353 426 353 393 q 391 513 353 476 q 478 550 429 550 q 537 527 514 550 q 560 469 560 504 q 522 384 560 421 q 436 347 483 347 m 235 -6 q 176 17 199 -6 q 153 76 153 40 q 191 160 153 124 q 276 197 229 197 q 337 174 314 197 q 360 118 360 151 q 321 32 360 69 q 235 -6 282 -6 z "},";":{"ha":769,"x_min":139,"x_max":536,"o":"m 411 347 q 352 370 375 347 q 329 429 329 393 q 367 513 329 476 q 453 550 406 550 q 513 527 490 550 q 536 471 536 504 q 497 385 536 422 q 411 347 458 347 m 236 -56 q 139 -39 178 -56 q 233 80 186 -10 q 315 279 281 169 q 414 224 374 254 q 454 167 454 194 q 413 86 454 140 q 318 -12 371 32 q 236 -56 265 -56 z "},"!":{"ha":556,"x_min":1,"x_max":792,"o":"m 203 107 q 164 135 179 118 q 151 174 149 153 q 202 307 156 197 q 318 563 249 417 q 460 844 388 710 q 688 1069 582 1069 q 792 1011 742 1069 q 482 562 639 806 q 203 107 325 318 m 83 -157 q 24 -134 47 -157 q 1 -75 1 -111 q 40 9 1 -28 q 125 46 78 46 q 185 23 163 46 q 208 -36 208 0 q 170 -120 208 -83 q 83 -157 132 -157 z "},"?":{"ha":833,"x_min":139,"x_max":993,"o":"m 364 125 q 301 146 322 126 q 281 200 281 165 q 316 308 281 246 q 419 439 351 371 q 582 567 488 507 q 788 736 715 651 q 861 875 861 821 q 844 914 861 900 q 794 928 826 928 q 622 867 718 928 q 458 726 526 807 q 389 596 389 646 q 390 585 389 589 q 334 626 357 599 q 311 689 311 653 q 367 810 311 744 q 554 957 438 894 q 775 1019 671 1019 q 953 931 893 1019 q 993 813 993 871 q 900 637 993 721 q 619 440 807 553 q 424 276 485 361 q 364 125 363 192 m 222 -135 q 162 -112 185 -135 q 139 -56 139 -89 q 177 31 139 -7 q 264 68 215 68 q 323 45 300 68 q 346 -14 346 22 q 308 -98 346 -61 q 222 -135 269 -135 z "},"":{"ha":694,"x_min":340,"x_max":546,"o":"m 422 290 q 363 313 386 290 q 340 372 340 336 q 378 458 340 421 q 464 494 417 494 q 523 472 500 494 q 546 413 546 449 q 508 327 546 364 q 422 290 469 290 z "},"":{"ha":764,"x_min":200,"x_max":665,"o":"m 385 117 q 251 168 303 117 q 200 299 200 219 q 204 344 200 322 q 260 458 218 406 q 360 542 301 511 q 481 572 418 572 q 614 520 563 572 q 665 389 665 468 q 661 344 665 368 q 606 230 647 282 q 506 147 565 178 q 385 117 447 117 z "},"*":{"ha":625,"x_min":254,"x_max":767,"o":"m 544 596 q 478 731 529 633 q 332 603 353 629 q 308 627 318 611 q 297 664 297 643 q 308 706 297 681 q 363 776 321 732 q 256 779 282 781 l 254 794 q 311 869 254 847 q 389 882 329 876 q 329 961 339 961 q 421 992 379 992 q 465 976 449 992 q 514 913 488 958 q 615 979 583 967 q 636 983 626 983 q 689 964 663 983 q 736 917 715 944 q 657 868 731 921 q 721 853 700 863 q 757 812 747 842 q 767 750 767 782 l 765 724 q 586 756 761 735 q 601 674 601 703 q 585 621 601 640 q 544 596 568 601 z "},"#":{"ha":1111,"x_min":219,"x_max":1111,"o":"m 432 36 q 384 79 404 53 q 364 140 364 106 q 372 183 364 161 l 381 204 q 219 185 228 200 q 241 288 221 242 q 301 347 261 335 q 440 354 333 357 l 476 442 q 304 419 314 435 q 328 525 307 478 q 389 586 349 572 q 500 594 414 594 l 543 594 q 629 746 601 717 q 706 774 657 774 q 817 746 758 774 q 710 586 799 744 l 822 578 q 914 746 886 718 q 989 774 942 774 q 1096 746 1039 774 q 979 563 1076 744 l 1007 560 q 1084 519 1058 554 q 1111 440 1110 485 q 918 446 1063 444 l 856 322 l 917 315 q 993 275 968 308 q 1021 197 1018 242 q 799 204 944 203 q 719 36 772 151 q 673 78 692 51 q 654 139 654 106 q 663 183 654 158 l 671 207 l 513 207 q 432 36 440 57 m 765 446 l 635 446 l 583 347 l 721 336 l 765 446 z "},"/":{"ha":569,"x_min":0,"x_max":885,"o":"m 39 -90 q 11 -42 22 -71 q 0 21 0 -12 q 24 115 0 67 q 161 335 53 176 q 390 652 269 494 q 583 878 511 810 q 760 969 679 969 q 885 901 829 969 q 761 832 857 917 q 542 608 665 747 q 311 329 418 468 q 164 118 236 231 q 39 -90 92 6 z "},"\\":{"ha":833,"x_min":147,"x_max":790,"o":"m 790 -140 q 718 -157 756 -157 q 654 -136 681 -157 q 503 104 626 -112 q 271 544 381 321 q 150 844 161 768 q 147 876 147 867 q 175 946 147 926 q 242 965 203 965 q 296 958 269 965 q 373 732 279 950 q 596 245 467 514 q 790 -140 725 -24 z "},"(":{"ha":778,"x_min":278,"x_max":967,"o":"m 425 -122 q 335 -64 381 -107 q 282 64 290 -21 q 278 150 278 106 q 324 415 278 275 q 488 728 369 556 q 681 940 585 869 q 858 1010 776 1010 q 965 974 917 1010 q 967 970 967 972 q 964 968 967 968 q 849 919 921 974 q 693 754 776 864 q 535 496 610 644 q 439 238 468 361 q 410 15 410 114 q 415 -66 410 -32 q 429 -117 421 -100 q 428 -122 431 -119 q 425 -122 426 -124 z "},")":{"ha":722,"x_min":-11,"x_max":678,"o":"m -10 -100 q -10 -97 -11 -99 q -7 -94 -10 -94 q 108 -44 36 -100 q 264 120 181 11 q 421 378 347 229 q 517 636 488 511 q 546 860 546 761 q 540 944 546 908 q 525 993 533 979 q 529 997 525 997 q 619 940 574 982 q 674 810 665 897 q 678 724 678 768 q 632 458 678 599 q 468 146 586 318 q 276 -66 371 4 q 99 -136 181 -136 q -10 -100 39 -136 z "},"{":{"ha":750,"x_min":194,"x_max":1032,"o":"m 397 -89 q 350 -92 364 -92 q 194 43 194 -92 q 275 292 194 143 q 322 447 322 382 q 310 508 322 483 q 283 544 299 532 q 282 550 281 547 q 286 553 283 553 q 413 622 346 558 q 601 838 479 686 q 740 977 678 931 q 865 1024 801 1024 q 1029 954 942 1024 q 1030 949 1032 951 q 1025 947 1028 946 q 985 953 1007 953 q 880 915 932 953 q 782 822 828 878 q 664 668 736 767 q 535 545 601 585 q 414 506 468 506 q 451 464 436 492 q 467 392 467 436 q 401 179 467 306 q 353 19 353 86 q 367 -44 353 -19 q 399 -81 381 -69 q 401 -85 401 -82 q 397 -89 400 -89 z "},"}":{"ha":736,"x_min":-56,"x_max":726,"o":"m -53 -29 q -54 -24 -56 -28 q -50 -22 -53 -21 q -14 -26 -33 -26 q 170 55 78 -26 q 317 264 263 136 q 417 419 360 367 q 525 481 474 472 q 482 517 496 500 q 468 571 468 533 q 532 764 468 638 q 572 899 572 844 q 553 961 572 939 q 508 992 533 983 q 506 998 506 994 q 510 1003 506 1001 q 585 1011 551 1011 q 692 974 657 1011 q 726 872 726 938 q 708 765 726 824 q 658 649 690 707 q 632 564 632 597 q 653 508 632 528 q 699 479 674 489 q 702 474 701 478 q 699 469 703 471 q 590 403 632 440 q 517 321 547 367 q 439 185 488 275 q 388 92 414 136 q 282 -35 342 11 q 139 -81 222 -81 q -53 -29 54 -81 z "},"[":{"ha":625,"x_min":0,"x_max":936,"o":"m 450 -68 q 299 -47 418 -47 q 131 -54 221 -47 q 4 -67 40 -61 q 1 -65 3 -67 q 1 -62 0 -64 q 279 555 121 279 q 550 994 438 831 q 554 996 551 996 q 831 988 725 988 q 926 993 910 988 q 929 992 929 993 q 936 956 936 975 q 896 901 936 917 q 796 885 856 885 q 674 896 736 885 q 444 530 565 772 q 219 24 322 288 q 353 43 297 43 q 438 22 414 43 q 461 -31 461 0 q 454 -67 461 -50 q 453 -69 454 -68 q 450 -68 451 -69 z "},"]":{"ha":833,"x_min":0,"x_max":936,"o":"m 382 -71 q 107 -61 246 -61 q 11 -67 29 -61 q 8 -67 10 -68 q 7 -65 7 -67 q 0 -31 0 -44 q 40 24 0 8 q 140 40 81 40 q 263 29 200 40 q 492 395 371 153 q 717 901 614 638 q 585 882 639 882 q 499 903 524 882 q 475 956 475 925 q 482 993 475 976 q 483 995 482 994 q 486 994 485 996 q 639 972 518 972 q 798 979 714 972 q 929 992 882 986 q 934 990 932 992 q 935 986 936 989 q 732 516 850 744 q 520 138 614 288 q 386 -68 426 -12 q 382 -71 383 -71 z "},"-":{"ha":833,"x_min":158,"x_max":714,"o":"m 714 303 q 611 315 708 311 q 390 319 514 319 q 163 311 211 319 q 158 338 158 324 q 211 414 158 388 q 331 439 244 429 q 507 449 418 449 q 653 436 617 449 q 699 388 685 426 q 714 303 714 350 z "},"_":{"ha":833,"x_min":-140,"x_max":697,"o":"m 697 -231 q 543 -218 690 -222 q 210 -214 396 -214 q -135 -222 -62 -214 q -140 -196 -140 -210 q -61 -119 -140 -146 q 119 -94 -11 -104 q 385 -85 250 -85 q 604 -97 550 -85 q 675 -145 653 -107 q 697 -231 697 -183 z "},"":{"ha":556,"x_min":-42,"x_max":274,"o":"m 56 -196 q -42 -179 -3 -196 q 53 -60 6 -150 q 135 139 100 29 q 233 84 193 114 q 274 26 274 54 q 232 -53 274 1 q 138 -152 190 -108 q 56 -196 85 -196 z "},"":{"ha":694,"x_min":-42,"x_max":560,"o":"m 56 -196 q -42 -179 -3 -196 q 53 -60 6 -150 q 135 139 100 29 q 233 84 193 114 q 274 26 274 54 q 232 -53 274 1 q 138 -152 190 -108 q 56 -196 85 -196 m 342 -196 q 246 -179 285 -196 q 340 -60 293 -150 q 422 139 386 29 q 519 84 479 114 q 560 26 560 54 q 518 -53 560 1 q 424 -152 476 -108 q 342 -196 372 -196 z "},"":{"ha":556,"x_min":119,"x_max":721,"o":"m 217 657 q 119 674 158 657 q 214 792 167 703 q 296 992 261 882 q 394 937 354 967 q 435 879 435 907 q 393 799 435 854 q 299 701 351 744 q 217 657 246 657 m 503 657 q 407 674 446 657 q 501 792 454 703 q 583 992 547 882 q 681 937 640 967 q 721 879 721 907 q 679 799 721 854 q 585 701 638 744 q 503 657 533 657 z "},"":{"ha":556,"x_min":142,"x_max":733,"o":"m 571 660 q 469 711 511 682 q 428 768 428 740 q 467 849 428 793 q 557 950 507 904 q 636 997 607 996 q 733 985 694 1000 q 644 863 688 954 q 571 660 601 771 m 283 647 q 183 699 224 671 q 142 756 142 728 q 181 837 142 781 q 271 939 221 893 q 350 985 321 985 q 447 972 407 988 q 358 850 401 942 q 283 647 314 758 z "},"":{"ha":417,"x_min":228,"x_max":567,"o":"m 472 979 q 567 950 529 971 q 458 844 515 928 q 354 656 401 761 q 265 719 301 686 q 228 781 228 753 q 276 854 228 804 q 383 943 325 904 q 472 979 442 982 z "},"":{"ha":292,"x_min":222,"x_max":504,"o":"m 350 1029 q 459 988 414 1013 q 504 933 504 963 q 470 847 504 906 q 392 740 436 789 q 319 688 349 692 q 274 683 294 683 q 222 690 242 683 q 299 820 265 725 q 350 1029 332 915 z "},"$":{"ha":875,"x_min":154,"x_max":1065,"o":"m 233 -94 q 301 85 246 -33 q 194 176 233 118 q 154 294 154 233 q 215 424 154 372 q 222 422 219 428 q 260 303 229 372 q 357 197 292 233 q 432 328 394 267 q 403 350 413 342 q 349 410 367 375 q 331 486 331 444 q 369 614 331 547 q 477 736 407 681 q 639 824 547 792 q 790 854 728 853 q 992 1007 917 1007 q 1064 965 1031 1007 q 1065 963 1065 964 q 1063 961 1064 961 q 890 832 1013 958 q 931 790 918 815 q 944 733 944 764 q 935 678 944 710 q 890 597 921 639 q 821 525 860 554 q 743 496 782 496 q 653 550 693 496 q 538 390 601 481 q 592 346 564 365 l 636 310 q 677 260 663 288 q 692 201 692 232 q 630 95 692 139 q 450 51 568 51 q 331 72 390 51 l 233 -94 m 656 554 q 731 590 681 551 q 824 678 782 629 q 863 747 865 726 q 826 764 863 764 q 656 554 742 668 m 529 483 q 692 724 621 625 q 535 586 588 672 q 493 476 493 521 q 500 440 493 458 l 529 483 m 399 181 q 461 169 439 169 q 517 210 517 169 q 505 249 517 226 q 471 293 493 271 q 399 181 417 210 z "},"+":{"ha":1028,"x_min":272,"x_max":922,"o":"m 503 49 q 448 85 469 57 q 429 160 426 113 q 472 290 431 201 q 276 279 325 288 q 272 310 272 293 q 333 400 272 368 q 544 438 386 425 q 667 619 628 585 q 722 639 690 639 q 781 628 750 639 q 838 600 811 617 q 725 443 824 600 q 850 431 818 440 q 905 374 888 418 q 921 274 922 329 q 633 292 913 289 q 503 49 525 108 z "},"":{"ha":1042,"x_min":281,"x_max":993,"o":"m 358 303 q 299 351 318 313 q 281 436 281 389 q 388 424 285 428 q 639 421 492 421 q 988 432 925 421 q 993 406 993 419 q 925 329 993 356 q 766 301 882 311 q 531 292 650 292 q 358 303 406 292 z "},"":{"ha":1083,"x_min":300,"x_max":976,"o":"m 332 10 q 309 49 318 25 q 300 100 300 72 q 314 165 300 132 q 392 259 321 183 q 508 381 463 335 l 421 446 q 353 495 386 472 q 311 522 321 518 q 336 588 314 561 q 400 611 358 614 q 453 590 417 610 q 544 533 489 569 q 576 513 558 525 q 617 489 594 501 q 844 657 801 644 q 857 658 849 658 q 918 624 888 658 q 972 540 949 590 q 918 512 967 546 q 761 390 869 478 q 876 294 807 353 q 954 221 944 235 q 976 139 976 192 q 954 21 976 83 q 881 92 953 32 q 635 289 808 153 q 460 134 571 236 q 332 10 350 32 z "},"":{"ha":972,"x_min":165,"x_max":936,"o":"m 603 483 q 544 506 567 483 q 521 564 521 529 q 559 649 521 613 q 646 686 597 686 q 705 663 682 686 q 728 604 728 640 q 690 519 728 556 q 603 483 651 483 m 250 303 q 185 351 206 313 q 165 436 165 389 q 288 425 171 429 q 556 421 404 421 q 787 424 681 421 q 931 432 893 426 q 936 406 936 419 q 863 329 936 356 q 690 301 815 311 q 436 292 565 292 q 250 303 301 292 m 436 17 q 377 40 400 17 q 354 97 354 63 q 392 183 354 146 q 478 219 431 219 q 537 197 514 219 q 560 138 560 174 q 522 53 560 89 q 436 17 483 17 z "},"=":{"ha":972,"x_min":240,"x_max":868,"o":"m 868 375 q 780 386 864 382 q 586 390 696 390 q 419 388 496 390 q 315 379 343 385 q 311 404 311 390 q 323 446 311 425 q 365 482 335 467 q 490 510 400 500 q 672 519 579 519 q 807 508 769 519 q 853 460 839 499 q 868 375 868 422 m 796 185 q 708 197 792 193 q 508 200 625 200 q 244 190 294 200 q 240 217 240 203 q 293 293 240 267 q 422 320 329 310 q 606 331 514 331 q 735 319 699 331 q 781 272 767 310 q 796 185 796 233 z "},"%":{"ha":1347,"x_min":321,"x_max":1286,"o":"m 443 -53 q 417 -5 428 -33 q 407 56 407 24 q 428 140 407 99 q 552 329 456 194 q 765 611 649 464 q 965 849 881 758 q 1185 996 1101 996 q 1240 977 1217 996 q 1286 925 1263 958 q 967 635 1199 922 q 481 0 735 349 l 443 -53 m 422 485 q 349 553 376 511 q 321 643 321 594 q 389 788 321 715 q 658 957 550 957 q 754 917 713 957 q 800 818 800 874 q 744 682 800 760 q 607 533 679 594 q 472 471 535 471 q 422 485 444 471 m 443 669 q 435 635 435 649 q 456 613 435 613 q 533 656 486 613 q 618 772 581 699 q 642 738 642 757 q 692 806 674 774 q 704 851 711 838 q 676 868 696 868 q 597 836 646 868 q 505 758 549 804 q 443 669 461 711 m 835 101 q 790 199 790 143 q 846 335 790 260 q 983 484 911 422 q 1117 546 1054 546 q 1167 532 1143 546 q 1240 464 1213 506 q 1268 374 1268 422 q 1201 229 1268 300 q 931 61 1042 61 q 835 101 876 61 m 885 167 q 914 150 893 150 q 992 182 944 150 q 1084 260 1040 214 q 1146 349 1128 307 q 1154 383 1154 369 q 1133 406 1154 406 q 1057 363 1104 406 q 972 246 1010 319 q 949 279 949 260 q 898 212 917 243 q 885 167 879 181 z "},"@":{"ha":1250,"x_min":99,"x_max":1276,"o":"m 299 -21 q 148 131 197 40 q 99 326 99 221 q 149 551 99 438 q 292 761 200 665 q 504 915 385 857 q 750 972 622 972 q 1007 915 885 972 q 1203 760 1129 857 q 1276 556 1276 664 q 1257 450 1276 504 q 1142 232 1210 321 q 998 100 1074 143 q 851 57 922 57 q 764 76 806 57 q 679 239 679 117 q 701 371 679 306 q 612 226 664 319 q 538 88 560 132 q 532 85 536 85 q 412 149 450 103 q 374 260 374 194 q 422 432 374 335 q 577 665 492 569 q 751 761 663 761 q 850 726 815 761 q 900 647 885 690 q 946 597 925 632 q 944 588 949 592 q 847 410 888 510 q 807 251 807 311 q 849 197 807 192 q 961 264 896 206 q 1074 410 1026 322 q 1121 593 1121 499 q 1039 786 1121 717 q 824 856 957 856 q 614 815 721 856 q 434 693 518 781 q 299 495 350 606 q 249 285 249 385 q 307 113 249 181 q 599 -1 406 -1 q 706 7 656 -1 q 785 24 756 15 q 788 23 786 25 q 789 18 790 21 q 710 -67 765 -25 q 563 -108 654 -108 q 299 -21 444 -108 m 551 253 q 825 644 600 303 q 811 647 817 647 q 664 521 763 647 q 567 365 607 447 q 528 251 528 283 q 533 240 528 240 q 551 253 542 240 z "},"&":{"ha":1028,"x_min":132,"x_max":969,"o":"m 542 13 q 411 -6 478 -6 q 212 51 292 -6 q 132 208 132 108 q 201 374 132 300 q 401 535 269 449 q 386 658 386 603 q 393 724 386 692 q 459 859 411 803 q 569 943 507 915 q 689 971 631 971 q 788 942 753 971 q 832 887 814 919 q 850 814 850 854 q 781 663 850 738 q 688 583 742 619 q 551 497 635 547 q 656 315 583 403 q 690 276 672 294 q 763 489 763 386 q 758 538 763 513 q 760 542 758 540 q 764 542 763 543 q 861 374 861 506 q 810 186 861 272 q 939 153 876 153 q 963 154 957 153 q 967 153 965 156 q 968 149 969 151 q 933 97 960 126 q 865 44 906 67 q 779 22 825 22 q 675 56 726 22 l 668 61 q 542 13 611 31 m 600 661 q 715 763 676 711 q 753 853 753 815 q 741 886 753 874 q 708 899 729 899 q 628 867 674 899 q 550 774 576 832 q 524 644 524 715 q 525 613 524 624 l 600 661 m 576 153 q 433 422 488 267 q 315 314 357 369 q 272 189 272 258 q 303 110 272 136 q 388 83 335 83 q 481 101 431 83 q 576 153 531 119 z "}}}
